<svg width="48" height="49" viewBox="0 0 48 49" fill="none" xmlns="http://www.w3.org/2000/svg">
<path d="M40.0533 24.035C40.0533 25.9659 37.3028 27.423 36.5526 29.2351C35.8303 30.9823 36.7718 33.9659 35.3518 35.386C33.9318 36.806 30.9481 35.8645 29.2009 36.5868C27.3965 37.337 25.9302 40.0875 24.0008 40.0875C22.0714 40.0875 20.6051 37.337 18.8007 36.5868C17.0534 35.8645 14.0698 36.806 12.6498 35.386C11.2298 33.9659 12.1713 30.9823 11.4489 29.2351C10.6988 27.4307 7.94824 25.9644 7.94824 24.035C7.94824 22.1056 10.6988 20.6392 11.4489 18.8349C12.1713 17.0892 11.2298 14.104 12.6498 12.684C14.0698 11.2639 17.055 12.2055 18.8007 11.4831C20.6128 10.733 22.0714 7.98242 24.0008 7.98242C25.9302 7.98242 27.3965 10.733 29.2009 11.4831C30.9481 12.2055 33.9318 11.2639 35.3518 12.684C36.7718 14.104 35.8303 17.0876 36.5526 18.8349C37.3028 20.647 40.0533 22.1056 40.0533 24.035Z" fill="#C6DE99"/>
<path d="M39.1051 20.1479C38.5232 19.5397 37.9212 18.913 37.6943 18.362C37.4844 17.8573 37.472 17.0207 37.4597 16.2104C37.4365 14.7039 37.4118 12.9968 36.2249 11.8098C35.0379 10.6228 33.3308 10.5981 31.8243 10.575C31.014 10.5626 30.1774 10.5503 29.6727 10.3404C29.1232 10.1135 28.495 9.5115 27.8868 8.9296C26.8218 7.90625 25.6117 6.74707 24.0002 6.74707C22.3888 6.74707 21.1802 7.90625 20.1137 8.9296C19.5055 9.5115 18.8789 10.1135 18.3278 10.3404C17.8262 10.5503 16.9865 10.5626 16.1762 10.575C14.6697 10.5981 12.9626 10.6228 11.7756 11.8098C10.5887 12.9968 10.5717 14.7039 10.5408 16.2104C10.5285 17.0207 10.5161 17.8573 10.3062 18.362C10.0793 18.9115 9.47732 19.5397 8.89542 20.1479C7.87207 21.2129 6.71289 22.423 6.71289 24.0344C6.71289 25.6459 7.87207 26.8544 8.89542 27.921C9.47732 28.5291 10.0793 29.1558 10.3062 29.7068C10.5161 30.2116 10.5285 31.0482 10.5408 31.8585C10.564 33.365 10.5887 35.0721 11.7756 36.2591C12.9626 37.446 14.6697 37.4707 16.1762 37.4939C16.9865 37.5062 17.8231 37.5186 18.3278 37.7285C18.8773 37.9554 19.5055 38.5573 20.1137 39.1392C21.1787 40.1626 22.3888 41.3218 24.0002 41.3218C25.6117 41.3218 26.8202 40.1626 27.8868 39.1392C28.495 38.5573 29.1216 37.9554 29.6727 37.7285C30.1774 37.5186 31.014 37.5062 31.8243 37.4939C33.3308 37.4707 35.0379 37.446 36.2249 36.2591C37.4118 35.0721 37.4365 33.365 37.4597 31.8585C37.472 31.0482 37.4844 30.2116 37.6943 29.7068C37.9212 29.1573 38.5232 28.5291 39.1051 27.921C40.1284 26.856 41.2876 25.6459 41.2876 24.0344C41.2876 22.423 40.1284 21.2144 39.1051 20.1479ZM37.3223 26.2123C36.583 26.9841 35.8174 27.7821 35.4114 28.7622C35.0225 29.7038 35.0055 30.7796 34.9901 31.8214C34.9746 32.9019 34.9576 34.0333 34.4776 34.5118C33.9976 34.9903 32.8739 35.0088 31.7873 35.0242C30.7454 35.0397 29.6696 35.0567 28.728 35.4456C27.7479 35.8516 26.9499 36.6171 26.1781 37.3565C25.4064 38.0958 24.6176 38.8522 24.0002 38.8522C23.3828 38.8522 22.5879 38.0927 21.8223 37.3565C21.0568 36.6202 20.2526 35.8516 19.2725 35.4456C18.3309 35.0567 17.2551 35.0397 16.2132 35.0242C15.1328 35.0088 14.0014 34.9918 13.5229 34.5118C13.0444 34.0318 13.0259 32.9081 13.0104 31.8214C12.995 30.7796 12.978 29.7038 12.589 28.7622C12.1831 27.7821 11.4175 26.9841 10.6782 26.2123C9.93883 25.4406 9.18251 24.6518 9.18251 24.0344C9.18251 23.417 9.94192 22.6221 10.6782 21.8565C11.4144 21.0909 12.1831 20.2868 12.589 19.3066C12.978 18.3651 12.995 17.2893 13.0104 16.2474C13.0259 15.1669 13.0428 14.0355 13.5229 13.5571C14.0029 13.0786 15.1266 13.06 16.2132 13.0446C17.2551 13.0292 18.3309 13.0122 19.2725 12.6232C20.2526 12.2173 21.0506 11.4517 21.8223 10.7124C22.5941 9.97301 23.3828 9.21669 24.0002 9.21669C24.6176 9.21669 25.4126 9.9761 26.1781 10.7124C26.9437 11.4486 27.7479 12.2173 28.728 12.6232C29.6696 13.0122 30.7454 13.0292 31.7873 13.0446C32.8677 13.06 33.9991 13.077 34.4776 13.5571C34.9561 14.0371 34.9746 15.1608 34.9901 16.2474C35.0055 17.2893 35.0225 18.3651 35.4114 19.3066C35.8174 20.2868 36.583 21.0848 37.3223 21.8565C38.0617 22.6283 38.818 23.417 38.818 24.0344C38.818 24.6518 38.0586 25.4467 37.3223 26.2123ZM31.0479 19.4564C31.1627 19.571 31.2538 19.7072 31.316 19.8571C31.3781 20.007 31.4101 20.1677 31.4101 20.33C31.4101 20.4923 31.3781 20.6529 31.316 20.8028C31.2538 20.9528 31.1627 21.0889 31.0479 21.2036L22.4043 29.8473C22.2896 29.9621 22.1534 30.0532 22.0035 30.1153C21.8536 30.1775 21.6929 30.2094 21.5306 30.2094C21.3683 30.2094 21.2077 30.1775 21.0578 30.1153C20.9079 30.0532 20.7717 29.9621 20.657 29.8473L16.9526 26.1429C16.7209 25.9112 16.5907 25.5969 16.5907 25.2692C16.5907 24.9416 16.7209 24.6273 16.9526 24.3956C17.1843 24.1639 17.4985 24.0337 17.8262 24.0337C18.1539 24.0337 18.4681 24.1639 18.6998 24.3956L21.5306 27.228L29.3007 19.4564C29.4154 19.3416 29.5515 19.2505 29.7014 19.1883C29.8513 19.1262 30.012 19.0942 30.1743 19.0942C30.3366 19.0942 30.4973 19.1262 30.6472 19.1883C30.7971 19.2505 30.9332 19.3416 31.0479 19.4564Z" fill="#26007B"/>
</svg>
