<svg width="40" height="41" viewBox="0 0 40 41" fill="none" xmlns="http://www.w3.org/2000/svg">
<rect width="40" height="40.0569" rx="2.1475" fill="#26007B"/>
<path d="M33.3773 20.0285C33.3773 21.6376 31.0852 22.8518 30.46 24.3619C29.8581 25.8179 30.6427 28.3043 29.4593 29.4877C28.276 30.671 25.7896 29.8864 24.3336 30.4884C22.8299 31.1135 21.608 33.4056 20.0002 33.4056C18.3923 33.4056 17.1704 31.1135 15.6668 30.4884C14.2107 29.8864 11.7244 30.671 10.541 29.4877C9.35764 28.3043 10.1423 25.8179 9.54029 24.3619C8.91516 22.8583 6.62305 21.6363 6.62305 20.0285C6.62305 18.4207 8.91516 17.1987 9.54029 15.6951C10.1423 14.2403 9.35764 11.7527 10.541 10.5693C11.7244 9.38596 14.212 10.1706 15.6668 9.56861C17.1768 8.94348 18.3923 6.65137 20.0002 6.65137C21.608 6.65137 22.8299 8.94348 24.3336 9.56861C25.7896 10.1706 28.276 9.38596 29.4593 10.5693C30.6427 11.7527 29.8581 14.239 30.46 15.6951C31.0852 17.2051 33.3773 18.4207 33.3773 20.0285Z" fill="#C6DE99"/>
<path d="M32.5882 16.7904C32.1033 16.2836 31.6016 15.7614 31.4126 15.3022C31.2376 14.8816 31.2273 14.1844 31.2171 13.5091C31.1978 12.2537 31.1772 10.8311 30.188 9.84198C29.1989 8.85285 27.7763 8.83227 26.5209 8.81297C25.8456 8.80268 25.1485 8.79239 24.7279 8.61746C24.27 8.42838 23.7464 7.92674 23.2397 7.44182C22.3521 6.58903 21.3437 5.62305 20.0009 5.62305C18.658 5.62305 17.6509 6.58903 16.762 7.44182C16.2553 7.92674 15.733 8.42838 15.2738 8.61746C14.8558 8.79239 14.1561 8.80268 13.4808 8.81297C12.2254 8.83227 10.8028 8.85285 9.81366 9.84198C8.82453 10.8311 8.81038 12.2537 8.78465 13.5091C8.77436 14.1844 8.76407 14.8816 8.58914 15.3022C8.40006 15.7601 7.89842 16.2836 7.4135 16.7904C6.56071 17.6779 5.59473 18.6863 5.59473 20.0292C5.59473 21.372 6.56071 22.3792 7.4135 23.268C7.89842 23.7748 8.40006 24.297 8.58914 24.7562C8.76407 25.1768 8.77436 25.8739 8.78465 26.5492C8.80395 27.8046 8.82453 29.2272 9.81366 30.2164C10.8028 31.2055 12.2254 31.2261 13.4808 31.2454C14.1561 31.2557 14.8532 31.266 15.2738 31.4409C15.7318 31.63 16.2553 32.1316 16.762 32.6165C17.6496 33.4693 18.658 34.4353 20.0009 34.4353C21.3437 34.4353 22.3509 33.4693 23.2397 32.6165C23.7464 32.1316 24.2687 31.63 24.7279 31.4409C25.1485 31.266 25.8456 31.2557 26.5209 31.2454C27.7763 31.2261 29.1989 31.2055 30.188 30.2164C31.1772 29.2272 31.1978 27.8046 31.2171 26.5492C31.2273 25.8739 31.2376 25.1768 31.4126 24.7562C31.6016 24.2983 32.1033 23.7748 32.5882 23.268C33.441 22.3805 34.407 21.372 34.407 20.0292C34.407 18.6863 33.441 17.6792 32.5882 16.7904ZM31.1026 21.8441C30.4865 22.4872 29.8485 23.1522 29.5102 23.969C29.186 24.7536 29.1719 25.6501 29.159 26.5184C29.1462 27.4187 29.132 28.3616 28.732 28.7603C28.332 29.1591 27.3956 29.1745 26.49 29.1874C25.6218 29.2002 24.7253 29.2144 23.9407 29.5385C23.1239 29.8768 22.4589 30.5148 21.8158 31.1309C21.1726 31.747 20.5154 32.3773 20.0009 32.3773C19.4863 32.3773 18.8239 31.7444 18.1859 31.1309C17.548 30.5173 16.8778 29.8768 16.061 29.5385C15.2764 29.2144 14.3799 29.2002 13.5117 29.1874C12.6113 29.1745 11.6685 29.1603 11.2697 28.7603C10.871 28.3603 10.8555 27.4239 10.8427 26.5184C10.8298 25.6501 10.8157 24.7536 10.4915 23.969C10.1532 23.1522 9.51525 22.4872 8.89913 21.8441C8.28301 21.201 7.65274 20.5437 7.65274 20.0292C7.65274 19.5147 8.28559 18.8522 8.89913 18.2143C9.51268 17.5763 10.1532 16.9061 10.4915 16.0894C10.8157 15.3047 10.8298 14.4082 10.8427 13.54C10.8555 12.6396 10.8697 11.6968 11.2697 11.298C11.6697 10.8993 12.6061 10.8839 13.5117 10.871C14.3799 10.8581 15.2764 10.844 16.061 10.5198C16.8778 10.1816 17.5428 9.54357 18.1859 8.92745C18.8291 8.31133 19.4863 7.68107 20.0009 7.68107C20.5154 7.68107 21.1778 8.31391 21.8158 8.92745C22.4538 9.541 23.1239 10.1816 23.9407 10.5198C24.7253 10.844 25.6218 10.8581 26.49 10.871C27.3904 10.8839 28.3333 10.898 28.732 11.298C29.1307 11.6981 29.1462 12.6345 29.159 13.54C29.1719 14.4082 29.186 15.3047 29.5102 16.0894C29.8485 16.9061 30.4865 17.5711 31.1026 18.2143C31.7187 18.8574 32.349 19.5147 32.349 20.0292C32.349 20.5437 31.7161 21.2061 31.1026 21.8441ZM25.8739 16.2141C25.9696 16.3097 26.0455 16.4232 26.0973 16.5481C26.1491 16.673 26.1757 16.8069 26.1757 16.9421C26.1757 17.0774 26.1491 17.2113 26.0973 17.3362C26.0455 17.4611 25.9696 17.5746 25.8739 17.6702L18.6709 24.8732C18.5753 24.9689 18.4618 25.0448 18.3369 25.0966C18.212 25.1484 18.0781 25.175 17.9428 25.175C17.8076 25.175 17.6737 25.1484 17.5488 25.0966C17.4239 25.0448 17.3104 24.9689 17.2148 24.8732L14.1278 21.7862C13.9347 21.5931 13.8262 21.3312 13.8262 21.0582C13.8262 20.7851 13.9347 20.5232 14.1278 20.3302C14.3209 20.1371 14.5827 20.0286 14.8558 20.0286C15.1289 20.0286 15.3907 20.1371 15.5838 20.3302L17.9428 22.6904L24.4179 16.2141C24.5134 16.1184 24.6269 16.0426 24.7519 15.9908C24.8768 15.939 25.0107 15.9123 25.1459 15.9123C25.2811 15.9123 25.415 15.939 25.5399 15.9908C25.6649 16.0426 25.7784 16.1184 25.8739 16.2141Z" fill="#7E49F4"/>
</svg>
