<svg width="559" height="561" viewBox="0 0 559 561" fill="none" xmlns="http://www.w3.org/2000/svg">
<rect y="0.707031" width="558.79" height="559.585" rx="40" fill="white"/>
<path d="M134.615 445V123H289.635C319.688 123 345.601 127.907 367.375 137.72C389.455 147.533 406.475 161.64 418.435 180.04C430.395 198.133 436.375 219.6 436.375 244.44C436.375 269.28 430.395 290.747 418.435 308.84C406.475 326.933 389.455 341.04 367.375 351.16C345.601 360.973 319.688 365.88 289.635 365.88H194.875L243.175 319.42V445H134.615ZM243.175 331.38L194.875 282.16H282.735C297.761 282.16 308.801 278.787 315.855 272.04C323.215 265.293 326.895 256.093 326.895 244.44C326.895 232.787 323.215 223.587 315.855 216.84C308.801 210.093 297.761 206.72 282.735 206.72H194.875L243.175 157.5V331.38Z" fill="#26007B"/>
</svg>
