<svg width="80" height="80" viewBox="0 0 80 80" fill="none" xmlns="http://www.w3.org/2000/svg">
<g id="Frame">
<path id="Vector" d="M40.0165 25.8333H39.9833C28.7948 25.8333 22.4883 25.8333 14.7715 26.2408C10.2937 26.4773 6.62994 29.8146 5.83467 34.3648C5.17635 38.1313 4.47452 43.1051 4.17787 48.4371C3.99134 51.7898 6.141 54.8488 9.49729 55.2579C10.2159 55.3456 11.0094 55.4239 11.8752 55.4846L13.1633 70.9181C13.4329 74.1479 15.6749 76.9704 18.9523 77.2861C20.2435 77.4106 21.7573 77.4999 23.4421 77.4999C25.1785 77.4999 26.7333 77.4049 28.0498 77.2746C28.8636 77.1941 29.622 76.9549 30.3038 76.5881C31.1073 76.1559 31.8745 75.6212 32.6071 75.0832C32.8576 74.8994 33.1013 74.7173 33.3416 74.5374C33.8208 74.1793 34.2871 73.8306 34.768 73.4974C36.2065 72.5009 37.5458 71.8149 38.9831 71.8149H41.0166C42.4538 71.8149 43.7931 72.5009 45.2316 73.4974C45.7126 73.8306 46.1788 74.1791 46.658 74.5374C46.8985 74.7173 47.142 74.8994 47.3925 75.0832C48.1251 75.6212 48.8925 76.1559 49.6958 76.5881C50.3778 76.9549 51.1361 77.1941 51.9498 77.2746C53.2663 77.4049 54.8211 77.4999 56.5575 77.4999C58.2423 77.4999 59.7563 77.4106 61.0473 77.2861C64.3248 76.9704 66.5668 74.1479 66.8363 70.9181L68.1245 55.4846C68.9903 55.4239 69.7838 55.3456 70.5023 55.2579C73.8586 54.8488 76.0083 51.7898 75.8218 48.4371C75.5251 43.1051 74.8233 38.1313 74.165 34.3648C73.3696 29.8146 69.706 26.4773 65.2281 26.2408C57.5115 25.8333 51.2048 25.8333 40.0165 25.8333Z" fill="#1F5F8D"/>
<path id="Vector_2" d="M30 28.3333C30 33.8561 34.4772 38.3333 40 38.3333C45.5228 38.3333 50 33.8561 50 28.3333C50 22.8104 45.5228 18.3333 40 18.3333C34.4772 18.3333 30 22.8104 30 28.3333Z" fill="#FDB557"/>
<path id="Vector_3" d="M46.7236 41.8191C50.0641 41.9849 52.7009 44.4191 53.2591 47.7167C53.7156 50.4141 54.2354 53.9669 54.6278 58.0216C54.8818 60.6454 52.9628 62.9216 50.3306 63.0699C49.5861 63.1119 48.7524 63.1526 47.8296 63.1887L47.2743 72.2139C47.1414 74.3729 45.6311 76.2069 43.4826 76.4572C42.4506 76.5774 41.2598 76.6667 40.0003 76.6667C38.7408 76.6667 37.5499 76.5774 36.5179 76.4572C34.3694 76.2069 32.8591 74.3729 32.7263 72.2139L32.1708 63.1887C31.2483 63.1526 30.4148 63.1119 29.6703 63.0699C27.0383 62.9216 25.1193 60.6456 25.3733 58.0216C25.7656 53.9669 26.2854 50.4137 26.7419 47.7164C27.3001 44.4189 29.9368 41.9849 33.2771 41.8191C35.0473 41.7312 37.2744 41.6667 39.9999 41.6667C42.7258 41.6667 44.9533 41.7312 46.7236 41.8191Z" fill="#FDB557"/>
<path id="Vector_4" d="M66.6666 12.5C66.6666 18.0228 62.1895 22.5 56.6666 22.5C51.1438 22.5 46.6666 18.0228 46.6666 12.5C46.6666 6.97715 51.1438 2.5 56.6666 2.5C62.1895 2.5 66.6666 6.97715 66.6666 12.5Z" fill="#1F5F8D"/>
<path id="Vector_5" d="M13.3334 12.5C13.3334 18.0228 17.8105 22.5 23.3334 22.5C28.8562 22.5 33.3334 18.0228 33.3334 12.5C33.3334 6.97715 28.8562 2.5 23.3334 2.5C17.8105 2.5 13.3334 6.97715 13.3334 12.5Z" fill="#1F5F8D"/>
</g>
</svg>
