<svg width="80" height="80" viewBox="0 0 80 80" fill="none" xmlns="http://www.w3.org/2000/svg">
<g id="Frame">
<path id="Vector" d="M55.8826 8.54065C54.3463 10.9205 52.9668 13.3362 51.893 15.3853C50.7788 17.5112 50.6253 20.0895 51.7671 22.3487C51.9985 22.8065 52.2728 23.2303 52.5838 23.6175C52.2361 24.3083 51.9076 24.9815 51.6015 25.628C50.6176 27.706 50.5238 30.1863 51.6416 32.362C51.8181 32.7055 52.0191 33.0298 52.2418 33.3337H10C9.71511 33.3337 9.43014 33.3448 9.14587 33.367C12.2351 27.8328 16.4387 21.2953 20.5168 16.6168C22.93 13.8484 27.07 13.8484 29.4831 16.6168C30.0421 17.258 30.6035 17.9342 31.1638 18.638C34.9711 13.3129 39.1448 8.15734 43.1441 4.31529C45.5991 1.95675 49.4008 1.95675 51.856 4.31529C53.1855 5.59259 54.5343 7.01505 55.8826 8.54065Z" fill="#1F5F8D"/>
<path id="Vector_2" fill-rule="evenodd" clip-rule="evenodd" d="M9.99988 37.5C5.97039 37.5 2.23843 40.8583 2.87724 45.3382C5.47018 63.5212 21.1005 77.5 40 77.5C58.8993 77.5 74.5296 63.5212 77.1225 45.3382C77.7613 40.8583 74.0293 37.5 70 37.5H9.99988Z" fill="#FDB557"/>
<path id="Vector_3" fill-rule="evenodd" clip-rule="evenodd" d="M40.9498 37.5H70C74.0293 37.5 77.7613 40.8583 77.1225 45.3382C75.1135 59.4268 65.2773 70.9917 52.1578 75.4853C49.1006 69.6678 52.0031 64.8678 54.4021 60.9003C55.962 58.3207 57.309 56.0932 56.6668 54.1667C55.7823 52.2013 53.282 51.5383 50.515 50.8047C45.566 49.4925 39.7645 47.9543 40.8335 38.3333C40.8645 38.0552 40.9033 37.7772 40.9498 37.5ZM24.115 37.5C27.021 41.0232 28.513 45.013 26.6668 49.1667C25.2266 52.4073 22.4173 53.8653 19.5566 55.3502C16.0863 57.1515 12.5401 58.992 11.2699 64.1015C6.87791 58.8712 3.88768 52.4238 2.87724 45.3382C2.23843 40.8583 5.97039 37.5 9.99988 37.5H24.115Z" fill="#1F5F8D"/>
<path id="Vector_4" d="M64.8548 3.69247C65.7526 2.79359 67.1893 2.79359 68.087 3.69247C71.3858 6.99567 75.0275 12.8711 77.3585 17.3189C77.9088 18.3694 77.9338 19.5236 77.4561 20.4689C76.9841 21.4028 76.0625 22.0491 74.8905 22.1816C75.8938 23.9974 76.8098 25.7954 77.5746 27.4106C78.0603 28.4364 78.0618 29.5473 77.5941 30.4574C77.1218 31.3769 76.2103 32.0114 75.0493 32.1368C73.6345 32.2894 71.6693 32.4243 68.971 32.4768V39.9999C68.971 41.3806 67.8516 42.4999 66.471 42.4999C65.0901 42.4999 63.971 41.3806 63.971 39.9999V32.4768C61.2726 32.4243 59.3075 32.2894 57.8925 32.1368C56.7316 32.0114 55.8201 31.3769 55.3478 30.4574C54.8801 29.5473 54.8816 28.4364 55.3673 27.4106C56.1321 25.7954 57.0481 23.9974 58.0515 22.1816C56.8793 22.0491 55.9578 21.4028 55.4858 20.4689C55.0081 19.5236 55.033 18.3694 55.5835 17.3189C57.9145 12.8711 61.556 6.99567 64.8548 3.69247Z" fill="#FDB557"/>
</g>
</svg>
