<svg width="80" height="80" viewBox="0 0 80 80" fill="none" xmlns="http://www.w3.org/2000/svg">
<path d="M57.3917 13.3886C54.9765 11.1699 52.1165 9.75717 49.096 9.31412C44.6487 8.6618 40.1125 10.1553 36.5462 13.8029C35.5808 14.7901 35.5987 16.373 36.5858 17.3382C37.5732 18.3035 39.156 18.2857 40.1212 17.2985C42.6277 14.7349 45.5877 13.853 48.3703 14.2612C50.0772 14.5115 51.8117 15.2634 53.3957 16.5411C39.5407 19.5648 29.167 31.9037 29.167 46.6655C29.167 48.0462 30.2863 49.1655 31.667 49.1655H44.8892C46.27 49.1655 47.3892 48.0462 47.3892 46.6655C47.3892 39.1687 49.0152 32.5057 51.521 27.8072C53.3522 24.374 55.4653 22.2863 57.544 21.3738C59.9388 25.0725 59.6943 30.1073 56.7348 33.299C55.7962 34.3113 55.8558 35.8932 56.8682 36.832C57.8807 37.7707 59.4625 37.711 60.4012 36.6987C64.175 32.6288 65.0432 26.862 63.3168 21.8942C67.6467 23.8112 70.8337 28.137 70.8337 33.3322C70.8337 34.7128 71.953 35.8322 73.3337 35.8322C74.7143 35.8322 75.8337 34.7128 75.8337 33.3322C75.8337 24.7015 69.6168 17.8507 61.8985 16.2081C63.2885 11.1323 62.0088 5.19595 56.8993 2.246C55.7037 1.55564 54.1747 1.96533 53.4843 3.16105C52.7938 4.35678 53.2037 5.88577 54.3993 6.57612C56.601 7.84728 57.703 10.5362 57.3917 13.3886Z" fill="#1F5F8D"/>
<path d="M61.4778 50.482C55.881 46.5312 48.28 44.1665 40.0015 44.1665C31.7228 44.1665 24.122 46.5312 18.525 50.482C13.0065 54.3773 9.26512 59.9677 9.16992 66.4143C9.39217 66.2907 9.61067 66.1562 9.82479 66.0108C13.9271 63.2283 19.4091 63.2283 23.5113 66.0108C24.982 67.0085 26.6605 67.4997 28.3348 67.4997C30.0091 67.4997 31.6875 67.0085 33.1581 66.0108C37.2605 63.2283 42.7423 63.2283 46.8446 66.0108C48.3153 67.0085 49.9938 67.4997 51.6681 67.4997C53.3425 67.4997 55.0208 67.0085 56.4915 66.0108C60.5938 63.2283 66.0756 63.2283 70.178 66.0108C70.3921 66.1562 70.6106 66.2907 70.8328 66.4143C70.7376 59.9677 66.9963 54.3773 61.4778 50.482Z" fill="#FDB557"/>
<path fill-rule="evenodd" clip-rule="evenodd" d="M67.3698 70.1507C64.9622 68.5175 61.7045 68.5175 59.2968 70.1507C56.9837 71.7195 54.3245 72.5015 51.6667 72.5015C49.0088 72.5015 46.3497 71.7195 44.0365 70.1507C41.6288 68.5175 38.3712 68.5175 35.9635 70.1507C33.6503 71.7195 30.9912 72.5015 28.3333 72.5015C25.6755 72.5015 23.0163 71.7195 20.7032 70.1507C18.2955 68.5175 15.0378 68.5175 12.6301 70.1507C10.317 71.7195 7.65783 72.5015 5 72.5015C3.61928 72.5015 2.5 73.6207 2.5 75.0015C2.5 76.3822 3.61928 77.5015 5 77.5015H75C76.3807 77.5015 77.5 76.3822 77.5 75.0015C77.5 73.6207 76.3807 72.5015 75 72.5015C72.3422 72.5015 69.683 71.7195 67.3698 70.1507Z" fill="#1F5F8D"/>
</svg>
