<svg width="80" height="80" viewBox="0 0 80 80" fill="none" xmlns="http://www.w3.org/2000/svg">
<g id="Frame">
<path id="Vector" d="M22.4534 56.1956C18.4687 56.1956 14.6472 54.6815 11.8296 51.9864C9.01199 49.2913 7.42908 45.636 7.42908 41.8246C7.42908 38.0131 9.01199 34.3578 11.8296 31.6627C14.6472 28.9676 18.4687 27.4535 22.4534 27.4535C23.3945 23.2609 26.1476 19.5765 30.107 17.2108C32.0676 16.0394 34.2653 15.2271 36.5746 14.8201C38.884 14.4131 41.2598 14.4195 43.5664 14.8389C45.873 15.2583 48.0653 16.0824 50.018 17.2643C51.9707 18.4462 53.6457 19.9627 54.9472 21.7272C56.2487 23.4917 57.1513 25.4696 57.6035 27.548C58.0557 29.6264 58.0486 31.7647 57.5827 33.8406H60.7762C63.7407 33.8406 66.5837 35.0183 68.6799 37.1144C70.7761 39.2106 71.9537 42.0537 71.9537 45.0181C71.9537 47.9826 70.7761 50.8256 68.6799 52.9218C66.5837 55.018 63.7407 56.1956 60.7762 56.1956H57.5827" fill="#1F5F8D"/>
<path id="Vector_2" d="M41.6147 43.4211L35.2275 56.1954H44.8083L38.4211 68.9697" stroke="#FDB557" stroke-width="4" stroke-linecap="round" stroke-linejoin="round"/>
</g>
</svg>
