<svg width="80" height="80" viewBox="0 0 80 80" fill="none" xmlns="http://www.w3.org/2000/svg">
<path d="M20.4756 23.3335C25.9984 23.3335 30.4756 18.8563 30.4756 13.3335C30.4756 7.81065 25.9984 3.3335 20.4756 3.3335C14.9527 3.3335 10.4756 7.81065 10.4756 13.3335C10.4756 18.8563 14.9527 23.3335 20.4756 23.3335Z" fill="#FDB557"/>
<path d="M20.4762 27.5C15.1188 27.5 10.8104 27.6557 7.71095 27.8248C4.18196 28.0175 1.8051 31.3542 2.6832 34.754C5.19506 44.4798 7.7987 52.2225 8.60463 54.5553L10.1274 70.5457C10.3706 73.0988 12.2743 75.2433 14.898 75.5243C15.2073 75.5575 15.5312 75.5897 15.8681 75.6198C17.2867 75.7472 18.4777 74.6455 18.5355 73.2568L19.1588 58.2987C19.1773 57.8523 19.5447 57.5 19.9913 57.5H20.9607C21.4075 57.5 21.7747 57.8523 21.7933 58.2987L22.4165 73.2568C22.4745 74.6453 23.6655 75.7472 25.084 75.6198C25.4133 75.5903 25.7302 75.559 26.0332 75.5267C28.6685 75.2452 30.5767 73.085 30.8075 70.5193L32.2072 54.9598C32.7945 53.2798 35.5842 45.1495 38.2692 34.754C39.1472 31.3542 36.7703 28.0175 33.2413 27.8248C30.1418 27.6557 25.8335 27.5 20.4762 27.5Z" fill="#1F5F8D"/>
<path d="M59.2314 23.3335C64.7543 23.3335 69.2314 18.8563 69.2314 13.3335C69.2314 7.81065 64.7543 3.3335 59.2314 3.3335C53.7086 3.3335 49.2314 7.81065 49.2314 13.3335C49.2314 18.8563 53.7086 23.3335 59.2314 23.3335Z" fill="#FDB557"/>
<path d="M59.2314 27.5C61.5203 27.5 63.4231 27.5835 64.9399 27.694C68.0349 27.9197 70.5359 29.9972 71.5681 32.8628C73.0539 36.9885 75.3518 43.899 77.3429 52.1583C78.0656 55.1555 76.2151 58.133 73.0656 58.4978C72.1262 58.6067 71.0339 58.7137 69.7771 58.809L69.0444 70.57C68.8849 73.1307 67.0386 75.3402 64.3834 75.5952C64.1741 75.6153 63.9569 75.6348 63.7319 75.6533C62.3231 75.7695 61.1476 74.6743 61.0851 73.2987L60.5546 61.6288C60.5344 61.1838 60.1676 60.8333 59.7221 60.8333H58.7408C58.2953 60.8333 57.9284 61.1838 57.9083 61.6288L57.3777 73.2987C57.3152 74.6742 56.1397 75.7695 54.7309 75.6533C54.5061 75.6348 54.2888 75.6153 54.0796 75.5952C51.4244 75.3402 49.5779 73.1305 49.4184 70.5698L48.6858 58.809C47.4289 58.7137 46.3366 58.6067 45.3972 58.4978C42.2477 58.133 40.3972 55.1555 41.1197 52.1583C43.1111 43.899 45.4089 36.9885 46.8947 32.8628C47.9269 29.9972 50.4279 27.9197 53.5229 27.694C55.0397 27.5835 56.9426 27.5 59.2314 27.5Z" fill="#1F5F8D"/>
</svg>
