<svg width="80" height="80" viewBox="0 0 80 80" fill="none" xmlns="http://www.w3.org/2000/svg">
<g id="Frame">
<path id="Vector" d="M27.1924 15.3791C21.5741 20.9973 18.1287 24.8715 16.0427 27.4212C13.4135 30.6347 13.2835 35.03 16.0312 38.3068C17.2506 39.761 18.9311 41.6147 21.2382 43.9218C23.5454 46.229 25.3991 47.9095 26.8532 49.1288C30.1301 51.8767 34.5254 51.7467 37.7389 49.1173C40.2886 47.0313 44.1627 43.586 49.7809 37.9677C55.3992 32.3495 58.8446 28.4753 60.9306 25.9257C63.5597 22.7122 63.6899 18.3168 60.9421 15.04C59.7227 13.5859 58.0423 11.7322 55.7351 9.42505C53.4279 7.11788 51.5742 5.43733 50.1201 4.21798C46.8432 1.47026 42.4479 1.60026 39.2344 4.2295C36.6847 6.31557 32.8106 9.76092 27.1924 15.3791Z" fill="#1F5F8D"/>
<path id="Vector_2" fill-rule="evenodd" clip-rule="evenodd" d="M44.1079 43.4792C45.7624 41.9271 47.6459 40.1056 49.7812 37.9702C51.9187 35.8326 53.7419 33.9476 55.2952 32.2917C64.7019 40.8057 71.5204 46.8596 75.1424 50.0556C77.3379 51.9927 79.7014 55.6477 77.7781 59.5007C77.1831 60.6927 76.3114 61.9709 75.0492 63.2331C73.7869 64.4952 72.5089 65.3671 71.3169 65.9621C67.4639 67.8854 63.8089 65.5219 61.8716 63.3264C58.6757 59.7044 52.6219 52.8859 44.1079 43.4792Z" fill="#FDB557"/>
<path id="Vector_3" d="M16.1138 59.4697C18.0642 59.3274 20.8918 59.1667 23.7372 59.1667C26.386 59.1667 29.0182 59.3061 30.9407 59.4399C33.5783 59.6236 36.172 61.0392 37.4592 63.6669C38.438 65.6652 39.6313 68.6479 40.4248 72.5001H41.6667C43.0473 72.5001 44.1667 73.6194 44.1667 75.0001C44.1667 76.3807 43.0473 77.5001 41.6667 77.5001H5C3.61928 77.5001 2.5 76.3807 2.5 75.0001C2.5 73.6194 3.61928 72.5001 5 72.5001H6.25773C7.21277 68.1812 8.86165 64.9406 10.1198 62.9326C11.4957 60.7367 13.8221 59.6371 16.1138 59.4697Z" fill="#FDB557"/>
</g>
</svg>
