<svg width="80" height="80" viewBox="0 0 80 80" fill="none" xmlns="http://www.w3.org/2000/svg">
<g id="Frame">
<path id="Vector" fill-rule="evenodd" clip-rule="evenodd" d="M35.8333 23.3333C35.8333 11.8274 45.1606 2.5 56.6666 2.5C68.1726 2.5 77.4999 11.8274 77.4999 23.3333C77.4999 34.8393 68.1726 44.1667 56.6666 44.1667C45.1606 44.1667 35.8333 34.8393 35.8333 23.3333Z" fill="#1F5F8D"/>
<path id="Vector_2" fill-rule="evenodd" clip-rule="evenodd" d="M47.5 23.3333C47.5 21.9526 46.3807 20.8333 45 20.8333C43.6193 20.8333 42.5 21.9526 42.5 23.3333C42.5 31.1573 48.8427 37.4999 56.6667 37.4999C58.0473 37.4999 59.1667 36.3806 59.1667 34.9999C59.1667 33.6193 58.0473 32.4999 56.6667 32.4999C51.604 32.4999 47.5 28.3959 47.5 23.3333Z" fill="#FDB557"/>
<path id="Vector_3" d="M56.6667 9.16675C55.2861 9.16675 54.1667 10.286 54.1667 11.6667C54.1667 13.0475 55.2861 14.1667 56.6667 14.1667C61.7294 14.1667 65.8334 18.2707 65.8334 23.3334C65.8334 24.7141 66.9527 25.8334 68.3334 25.8334C69.7141 25.8334 70.8334 24.7141 70.8334 23.3334C70.8334 15.5094 64.4907 9.16675 56.6667 9.16675Z" fill="#1F5F8D"/>
<path id="Vector_4" d="M2.27405 47.1007C2.45858 45.2388 3.719 43.6767 5.50543 43.1208C9.37457 41.9168 16.3495 40 21.5432 40C29.3388 40 38.0259 41.9192 42.7086 43.123C44.9761 43.706 47.0413 44.979 48.0318 47.1003C48.5061 48.1165 48.9818 49.3885 49.3393 50.9165C50.0048 53.7613 47.4441 56.093 44.5321 55.8555L31.6729 54.8073C30.2952 54.695 29.1153 55.7827 29.1153 57.1648C29.1153 58.3122 29.9364 59.2923 31.0706 59.4652C33.4454 59.8273 37.5021 60.3703 40.4734 60.3703C46.7743 60.3703 63.5614 57.5493 69.0201 56.6022C70.1864 56.3998 71.3759 56.2597 72.5086 56.6043C74.1674 57.1093 76.5707 58.442 77.7009 61.9592C78.5451 64.586 76.6342 67.1332 74.0372 68.065C66.0604 70.9268 48.9998 76.6667 40.4734 76.6667C29.2106 76.6667 13.2701 74.326 6.21373 73.193C4.0625 72.8477 2.42028 71.127 2.21516 68.9578C1.95635 66.2208 1.66675 62.277 1.66675 58.3333C1.66675 54.087 2.0025 49.8407 2.27405 47.1007Z" fill="#FDB557"/>
</g>
</svg>
