<svg width="80" height="80" viewBox="0 0 80 80" fill="none" xmlns="http://www.w3.org/2000/svg">
<g id="Frame">
<path id="Vector" fill-rule="evenodd" clip-rule="evenodd" d="M56.6901 30.3459C54.5521 29.3987 52.1145 29.3987 49.9765 30.3459C41.1545 34.2539 34.6945 40.0992 31.8831 42.9242C30.4178 44.3969 29.636 46.3284 29.5213 48.3019C29.374 50.835 29.1666 55.304 29.1666 60.3932C29.1666 66.0257 29.4206 70.8995 29.5661 73.2307C29.697 75.325 31.3715 76.9847 33.4721 77.0895C36.2783 77.2294 43.0338 77.5 53.3333 77.5C63.6328 77.5 70.3883 77.2294 73.1945 77.0895C75.2951 76.9847 76.9696 75.325 77.1005 73.2307C77.246 70.8995 77.5 66.0257 77.5 60.3932C77.5 55.304 77.2926 50.835 77.1453 48.3019C77.0306 46.3284 76.2488 44.3969 74.7835 42.9242C71.9721 40.0992 65.5121 34.2539 56.6901 30.3459Z" fill="#FDB557"/>
<path id="Vector_2" fill-rule="evenodd" clip-rule="evenodd" d="M26.7338 77.5C25.9743 76.3348 25.4997 74.9657 25.4077 73.4903C25.2588 71.1072 25 66.1412 25 60.3932C25 55.1985 25.2115 50.6443 25.3617 48.06C25.5305 45.1557 26.6883 42.2375 28.9297 39.9852C31.9225 36.9778 38.8045 30.7377 48.2888 26.5362C51.5017 25.113 55.165 25.113 58.3778 26.5362C59.1703 26.8872 59.9447 27.2525 60.7002 27.629C60.5277 20.2257 60.2143 15.1654 59.9202 11.8291C59.5243 7.34167 56.3162 3.77788 51.68 3.28865C47.8127 2.88055 41.5597 2.5 31.6667 2.5C21.7737 2.5 15.5207 2.88055 11.6533 3.28865C7.01718 3.77788 3.80897 7.34167 3.4132 11.8291C2.97747 16.7693 2.5 25.4897 2.5 40C2.5 55.9952 2.79065 65.5262 3.0201 70.5588C3.20092 74.5252 6.47477 77.5 10.3536 77.5H26.7338Z" fill="#1F5F8D"/>
<path id="Vector_3" fill-rule="evenodd" clip-rule="evenodd" d="M14.1666 18.3333C14.1666 16.9526 15.2859 15.8333 16.6666 15.8333H46.6666C48.0473 15.8333 49.1666 16.9526 49.1666 18.3333C49.1666 19.7139 48.0473 20.8333 46.6666 20.8333H16.6666C15.2859 20.8333 14.1666 19.7139 14.1666 18.3333ZM16.6666 27.4999C15.2859 27.4999 14.1666 28.6193 14.1666 29.9999C14.1666 31.3806 15.2859 32.4999 16.6666 32.4999H30C31.3806 32.4999 32.5 31.3806 32.5 29.9999C32.5 28.6193 31.3806 27.4999 30 27.4999H16.6666ZM14.1666 41.6666C14.1666 40.2859 15.2859 39.1666 16.6666 39.1666H20C21.3806 39.1666 22.5 40.2859 22.5 41.6666C22.5 43.0473 21.3806 44.1666 20 44.1666H16.6666C15.2859 44.1666 14.1666 43.0473 14.1666 41.6666Z" fill="#FDB557"/>
<path id="Vector_4" d="M61.4193 77.4411C61.5318 75.9989 61.6667 73.2456 61.6667 68.3334C61.6667 64.6357 61.5902 62.1614 61.5045 60.5487C61.4117 58.8034 60.3945 57.3492 58.6727 57.0499C57.4558 56.8382 55.7302 56.6667 53.3333 56.6667C50.9365 56.6667 49.2108 56.8382 47.994 57.0499C46.2722 57.3492 45.255 58.8034 45.1622 60.5487C45.0765 62.1614 45 64.6357 45 68.3334C45 73.2456 45.1348 75.9989 45.2473 77.4411C47.6355 77.4771 50.3342 77.5001 53.3333 77.5001C56.3325 77.5001 59.0312 77.4771 61.4193 77.4411Z" fill="#1F5F8D"/>
</g>
</svg>
