<svg width="58" height="58" viewBox="0 0 58 58" fill="none" xmlns="http://www.w3.org/2000/svg">
<path opacity="0.2" d="M47.125 14.5V27.1875C42.318 27.1875 37.7078 29.0971 34.3087 32.4962C30.9096 35.8953 29 40.5055 29 45.3125C29 40.5055 27.0904 35.8953 23.6913 32.4962C20.2922 29.0971 15.682 27.1875 10.875 27.1875V14.5C13.7127 14.4977 16.5109 15.1645 19.0426 16.4462C21.6639 9.10555 29 5.4375 29 5.4375C29 5.4375 36.3384 9.10555 38.9688 16.4439C41.497 15.1641 44.2913 14.4982 47.125 14.5Z" fill="#644FC1"/>
<path d="M47.125 12.6869C44.656 12.6869 42.2087 13.1479 39.909 14.0463C36.6646 7.31735 30.1102 3.97329 29.8111 3.82149C29.5593 3.69549 29.2816 3.62988 29 3.62988C28.7184 3.62988 28.4407 3.69549 28.1889 3.82149C27.8876 3.97329 21.3354 7.31735 18.091 14.0463C15.7913 13.1479 13.344 12.6869 10.875 12.6869C10.3943 12.6869 9.93328 12.8778 9.59337 13.2178C9.25346 13.5577 9.0625 14.0187 9.0625 14.4994V32.6244C9.0625 37.9121 11.1631 42.9833 14.9021 46.7223C18.6411 50.4613 23.7122 52.5619 29 52.5619C34.2878 52.5619 39.3589 50.4613 43.0979 46.7223C46.837 42.9833 48.9375 37.9121 48.9375 32.6244V14.4994C48.9375 14.0187 48.7465 13.5577 48.4066 13.2178C48.0667 12.8778 47.6057 12.6869 47.125 12.6869ZM27.1875 48.8372C23.2016 48.3865 19.5208 46.485 16.8467 43.4951C14.1726 40.5051 12.6921 36.6357 12.6875 32.6244V29.0991C16.6734 29.5497 20.3542 31.4512 23.0283 34.4412C25.7024 37.4312 27.1829 41.3006 27.1875 45.3119V48.8372ZM27.1875 33.8614C25.5253 31.4923 23.3673 29.5134 20.8633 28.0623C18.3593 26.6112 15.5695 25.7226 12.6875 25.4582V16.4116C16.6734 16.8622 20.3542 18.7637 23.0283 21.7537C25.7024 24.7437 27.1829 28.6131 27.1875 32.6244V33.8614ZM21.3309 15.6571C23.4198 11.3026 27.3189 8.55438 29 7.52126C30.6856 8.54985 34.5734 11.2822 36.6669 15.6571C33.3153 17.7297 30.6486 20.7439 29 24.3231C27.3508 20.7436 24.6833 17.7294 21.3309 15.6571ZM45.3125 32.6244C45.3079 36.6357 43.8274 40.5051 41.1533 43.4951C38.4792 46.485 34.7984 48.3865 30.8125 48.8372V45.3119C30.8172 41.3006 32.2976 37.4312 34.9717 34.4412C37.6458 31.4512 41.3266 29.5497 45.3125 29.0991V32.6244ZM45.3125 25.4582C42.4305 25.7226 39.6407 26.6112 37.1367 28.0623C34.6327 29.5134 32.4747 31.4923 30.8125 33.8614V32.6244C30.8172 28.6131 32.2976 24.7437 34.9717 21.7537C37.6458 18.7637 41.3266 16.8622 45.3125 16.4116V25.4582Z" fill="#644FC1"/>
<path d="M27.1875 33.8614C25.5253 31.4923 23.3673 29.5134 20.8633 28.0623C18.3593 26.6112 15.5695 25.7226 12.6875 25.4582V16.4116C16.6734 16.8622 20.3542 18.7637 23.0283 21.7537C25.7024 24.7437 27.1829 28.6131 27.1875 32.6244V33.8614Z" fill="#B2CA7F"/>
<path d="M21.3309 15.6571C23.4198 11.3026 27.3189 8.55438 29 7.52126C30.6856 8.54985 34.5734 11.2822 36.6669 15.6571C33.3153 17.7297 30.6486 20.7439 29 24.3231C27.3508 20.7436 24.6833 17.7294 21.3309 15.6571Z" fill="#B2CA7F"/>
<path d="M45.3125 25.4582C42.4305 25.7226 39.6407 26.6112 37.1367 28.0623C34.6327 29.5134 32.4747 31.4923 30.8125 33.8614V32.6244C30.8172 28.6131 32.2976 24.7437 34.9717 21.7537C37.6458 18.7637 41.3266 16.8622 45.3125 16.4116V25.4582Z" fill="#B2CA7F"/>
</svg>
