<svg width="58" height="58" viewBox="0 0 58 58" fill="none" xmlns="http://www.w3.org/2000/svg">
<path d="M52.5625 12.6875V45.3125H36.25C34.3272 45.3125 32.4831 46.0763 31.1235 47.436C29.7638 48.7956 29 50.6397 29 52.5625V19.9375C29 18.0147 29.7638 16.1706 31.1235 14.811C32.4831 13.4513 34.3272 12.6875 36.25 12.6875H52.5625Z" fill="#B2CA7F"/>
<path d="M52.5625 10.875H36.25C34.8431 10.875 33.4555 11.2026 32.1971 11.8318C30.9387 12.4609 29.8441 13.3745 29 14.5C28.1559 13.3745 27.0613 12.4609 25.8029 11.8318C24.5445 11.2026 23.1569 10.875 21.75 10.875H5.4375C4.9568 10.875 4.49578 11.066 4.15587 11.4059C3.81596 11.7458 3.625 12.2068 3.625 12.6875V45.3125C3.625 45.7932 3.81596 46.2542 4.15587 46.5941C4.49578 46.934 4.9568 47.125 5.4375 47.125H21.75C23.1921 47.125 24.5752 47.6979 25.5949 48.7176C26.6146 49.7373 27.1875 51.1204 27.1875 52.5625C27.1875 53.0432 27.3785 53.5042 27.7184 53.8441C28.0583 54.184 28.5193 54.375 29 54.375C29.4807 54.375 29.9417 54.184 30.2816 53.8441C30.6215 53.5042 30.8125 53.0432 30.8125 52.5625C30.8125 51.1204 31.3854 49.7373 32.4051 48.7176C33.4248 47.6979 34.8079 47.125 36.25 47.125H52.5625C53.0432 47.125 53.5042 46.934 53.8441 46.5941C54.184 46.2542 54.375 45.7932 54.375 45.3125V12.6875C54.375 12.2068 54.184 11.7458 53.8441 11.4059C53.5042 11.066 53.0432 10.875 52.5625 10.875ZM21.75 43.5H7.25V14.5H21.75C23.1921 14.5 24.5752 15.0729 25.5949 16.0926C26.6146 17.1123 27.1875 18.4954 27.1875 19.9375V45.3125C25.6203 44.1332 23.7114 43.4969 21.75 43.5ZM50.75 43.5H36.25C34.2886 43.4969 32.3797 44.1332 30.8125 45.3125V19.9375C30.8125 18.4954 31.3854 17.1123 32.4051 16.0926C33.4248 15.0729 34.8079 14.5 36.25 14.5H50.75V43.5ZM36.25 19.9375H45.3125C45.7932 19.9375 46.2542 20.1285 46.5941 20.4684C46.934 20.8083 47.125 21.2693 47.125 21.75C47.125 22.2307 46.934 22.6917 46.5941 23.0316C46.2542 23.3715 45.7932 23.5625 45.3125 23.5625H36.25C35.7693 23.5625 35.3083 23.3715 34.9684 23.0316C34.6285 22.6917 34.4375 22.2307 34.4375 21.75C34.4375 21.2693 34.6285 20.8083 34.9684 20.4684C35.3083 20.1285 35.7693 19.9375 36.25 19.9375ZM47.125 29C47.125 29.4807 46.934 29.9417 46.5941 30.2816C46.2542 30.6215 45.7932 30.8125 45.3125 30.8125H36.25C35.7693 30.8125 35.3083 30.6215 34.9684 30.2816C34.6285 29.9417 34.4375 29.4807 34.4375 29C34.4375 28.5193 34.6285 28.0583 34.9684 27.7184C35.3083 27.3785 35.7693 27.1875 36.25 27.1875H45.3125C45.7932 27.1875 46.2542 27.3785 46.5941 27.7184C46.934 28.0583 47.125 28.5193 47.125 29ZM47.125 36.25C47.125 36.7307 46.934 37.1917 46.5941 37.5316C46.2542 37.8715 45.7932 38.0625 45.3125 38.0625H36.25C35.7693 38.0625 35.3083 37.8715 34.9684 37.5316C34.6285 37.1917 34.4375 36.7307 34.4375 36.25C34.4375 35.7693 34.6285 35.3083 34.9684 34.9684C35.3083 34.6285 35.7693 34.4375 36.25 34.4375H45.3125C45.7932 34.4375 46.2542 34.6285 46.5941 34.9684C46.934 35.3083 47.125 35.7693 47.125 36.25Z" fill="#5746AF"/>
</svg>
