<svg width="58" height="58" viewBox="0 0 58 58" fill="none" xmlns="http://www.w3.org/2000/svg">
<path d="M21.75 54.375L25.375 36.25L10.875 30.8125L36.25 3.625L32.625 21.75L47.125 27.1875L21.75 54.375Z" fill="#B2CA7F"/>
<path d="M48.8889 26.7736C48.8203 26.4831 48.681 26.214 48.4833 25.9903C48.2857 25.7666 48.0359 25.5952 47.7561 25.4912L34.7038 20.5952L38.0252 3.98139C38.1004 3.59537 38.0481 3.19537 37.876 2.84174C37.7039 2.48811 37.4215 2.20003 37.0713 2.02099C36.7212 1.84195 36.3223 1.78166 35.9349 1.8492C35.5474 1.91675 35.1925 2.10848 34.9236 2.39545L9.54859 29.583C9.34249 29.8001 9.1934 30.0649 9.11464 30.3538C9.03587 30.6426 9.02988 30.9465 9.0972 31.2382C9.16452 31.5299 9.30305 31.8004 9.50042 32.0255C9.6978 32.2507 9.94786 32.4234 10.2283 32.5283L23.2851 37.4243L19.9727 54.02C19.8975 54.406 19.9499 54.806 20.122 55.1596C20.294 55.5133 20.5765 55.8013 20.9266 55.9804C21.2768 56.1594 21.6757 56.2197 22.0631 56.1522C22.4505 56.0846 22.8055 55.8929 23.0744 55.6059L48.4494 28.4184C48.6517 28.2012 48.7976 27.9376 48.8743 27.6508C48.9509 27.364 48.9559 27.0628 48.8889 26.7736ZM24.7781 48.4851L27.1502 36.6177C27.2351 36.1968 27.1679 35.7595 26.9604 35.3836C26.7529 35.0077 26.4188 34.7176 26.0174 34.5651L14.0459 30.0678L33.2176 9.52764L30.8477 21.395C30.7628 21.8159 30.8301 22.2532 31.0376 22.6291C31.245 23.005 31.5792 23.2951 31.9805 23.4476L43.943 27.9336L24.7781 48.4851Z" fill="#644FC1"/>
</svg>
