<svg width="58" height="58" viewBox="0 0 58 58" fill="none" xmlns="http://www.w3.org/2000/svg">
<path opacity="0.2" d="M48.7114 38.2242C47.1481 41.5568 44.768 44.4404 41.7921 46.6071L39.6715 44.4842C39.4443 44.2561 39.1604 44.0926 38.8491 44.0106L33.9848 42.7283C33.5536 42.6149 33.1794 42.3465 32.9336 41.9745C32.6878 41.6025 32.5878 41.153 32.6526 40.7119L33.1918 37.0416C33.2374 36.732 33.3624 36.4395 33.5545 36.1926C33.7467 35.9456 33.9995 35.7526 34.2884 35.6324L41.1895 32.7641C41.5083 32.6318 41.8583 32.5933 42.1982 32.6531C42.5381 32.7129 42.854 32.8685 43.1085 33.1017L48.7114 38.2242ZM36.2255 23.7899L41.2484 17.9446C41.5308 17.617 41.6867 17.1991 41.6879 16.7665V11.329C37.4853 8.3064 32.3425 6.88184 27.1836 7.31136C22.0248 7.74088 17.1884 9.99632 13.5435 13.6723C9.89863 17.3483 7.68439 22.2038 7.29875 27.3661C6.9131 32.5283 8.38134 37.6589 11.4396 41.8356L13.6871 40.3585C13.936 40.194 14.1404 39.9707 14.2823 39.7082C14.4242 39.4458 14.4991 39.1524 14.5004 38.8541L14.548 30.6457C14.5505 30.29 14.6568 29.9427 14.8539 29.6466L19.5981 22.5552C19.7341 22.3532 19.9095 22.1808 20.1137 22.0481C20.3178 21.9154 20.5467 21.8252 20.7865 21.7829C21.0263 21.7407 21.2721 21.7471 21.5094 21.8019C21.7466 21.8568 21.9704 21.9588 22.1673 22.1021L26.6555 25.0474C27.0334 25.3196 27.5011 25.4371 27.9628 25.3759L35.0904 24.4107C35.5323 24.3505 35.9364 24.1295 36.2255 23.7899Z" fill="black"/>
<path d="M29 5.4375C24.3398 5.4375 19.7842 6.81942 15.9094 9.4085C12.0346 11.9976 9.01449 15.6775 7.2311 19.983C5.44771 24.2885 4.98109 29.0261 5.89026 33.5968C6.79942 38.1675 9.04353 42.3659 12.3388 45.6612C15.6341 48.9565 19.8325 51.2006 24.4032 52.1097C28.9739 53.0189 33.7115 52.5523 38.017 50.7689C42.3225 48.9855 46.0024 45.9655 48.5915 42.0906C51.1806 38.2158 52.5625 33.6602 52.5625 29C52.5559 22.7529 50.0713 16.7635 45.6539 12.3461C41.2365 7.92869 35.2471 5.4441 29 5.4375ZM29 9.0625C32.8628 9.0584 36.6426 10.1829 39.875 12.2978V16.7656L34.8521 22.5973L27.7222 23.5625L27.652 23.5127L23.1955 20.5991C22.8004 20.3207 22.3536 20.1242 21.8814 20.0211C21.4093 19.918 20.9212 19.9103 20.4461 19.9985C19.9709 20.0868 19.5182 20.2691 19.1145 20.5349C18.7108 20.8007 18.3644 21.1445 18.0956 21.5461L13.3513 28.6375C12.9561 29.2285 12.7434 29.9226 12.7396 30.6335L12.6875 38.8419L11.9467 39.329C10.1151 36.3051 9.1206 32.8487 9.06495 29.3139C9.00929 25.7791 9.89453 22.293 11.6299 19.213C13.3653 16.133 15.8885 13.5698 18.9408 11.7862C21.9931 10.0025 25.4648 9.06249 29 9.0625ZM14.1126 42.2471L14.6835 41.8733C15.1821 41.5444 15.5917 41.0975 15.8759 40.5722C16.16 40.0469 16.31 39.4595 16.3125 38.8623L16.3601 30.6539L21.1088 23.5625C21.1321 23.5804 21.1563 23.597 21.1813 23.6123L25.6378 26.5282C26.3847 27.0553 27.3036 27.2796 28.2093 27.1558L35.3438 26.1884C36.2236 26.0709 37.0297 25.6348 37.6094 24.9627L42.6323 19.1264C43.194 18.4683 43.5018 17.6309 43.5 16.7656V15.3315C45.9516 17.9252 47.6608 21.1302 48.4488 24.611C49.2368 28.0919 49.0746 31.7205 47.9791 35.1172L44.3224 31.7731C43.8141 31.3065 43.1831 30.9947 42.5036 30.8743C41.8242 30.7539 41.1245 30.8299 40.4867 31.0934L33.5856 33.9594C33.0086 34.2017 32.5037 34.5884 32.1195 35.0825C31.7354 35.5765 31.485 36.1612 31.3925 36.7802L30.851 40.4482C30.7209 41.3311 30.921 42.231 31.413 42.9755C31.905 43.72 32.6544 44.2569 33.5177 44.4833L38.3797 45.7656L38.9144 46.3026C34.9441 48.5806 30.3102 49.421 25.7928 48.6823C21.2754 47.9437 17.1505 45.671 14.1126 42.2471ZM41.9141 44.1797L40.9399 43.2032C40.4854 42.747 39.9177 42.4202 39.295 42.2562L34.4375 40.9738L34.979 37.3058L41.8778 34.4375L46.4453 38.6244C45.2812 40.7335 43.7462 42.6154 41.9141 44.1797Z" fill="#644FC1"/>
<path d="M29 9.0625C32.8628 9.0584 36.6426 10.1829 39.875 12.2978V16.7656L34.8521 22.5973L27.7222 23.5625L27.652 23.5127L23.1955 20.5991C22.8004 20.3207 22.3536 20.1242 21.8814 20.0211C21.4093 19.918 20.9212 19.9103 20.4461 19.9985C19.9709 20.0868 19.5182 20.2691 19.1145 20.5349C18.7108 20.8007 18.3644 21.1445 18.0956 21.5461L13.3513 28.6375C12.9561 29.2285 12.7434 29.9226 12.7396 30.6335L12.6875 38.8419L11.9467 39.329C10.1151 36.3051 9.1206 32.8487 9.06495 29.3139C9.00929 25.7791 9.89453 22.293 11.6299 19.213C13.3653 16.133 15.8885 13.5698 18.9408 11.7862C21.9931 10.0025 25.4648 9.06249 29 9.0625Z" fill="#B2CA7F"/>
<path d="M41.9141 44.1797L40.9399 43.2032C40.4854 42.747 39.9177 42.4202 39.295 42.2562L34.4375 40.9738L34.979 37.3058L41.8778 34.4375L46.4453 38.6244C45.2812 40.7335 43.7462 42.6154 41.9141 44.1797Z" fill="#B2CA7F"/>
</svg>
