<svg width="58" height="58" viewBox="0 0 58 58" fill="none" xmlns="http://www.w3.org/2000/svg">
<g clip-path="url(#clip0_11472_30301)">
<path opacity="0.2" d="M3.625 34.4376H10.875V47.1251H3.625C3.1443 47.1251 2.68328 46.9341 2.34337 46.5942C2.00346 46.2543 1.8125 45.7933 1.8125 45.3126V36.2501C1.8125 35.7694 2.00346 35.3083 2.34337 34.9684C2.68328 34.6285 3.1443 34.4376 3.625 34.4376ZM46.2188 12.6876C45.2782 12.6881 44.3495 12.8979 43.5 13.3015C43.4383 11.941 42.9404 10.6364 42.0798 9.58069C41.2193 8.52501 40.0418 7.77431 38.7216 7.43963C37.4014 7.10495 36.0085 7.20405 34.749 7.72228C33.4895 8.24051 32.4301 9.15034 31.7277 10.3172C31.0253 11.4841 30.7171 12.8461 30.8487 14.2017C30.9802 15.5573 31.5446 16.8346 32.4583 17.8446C33.372 18.8546 34.5865 19.5438 35.9222 19.8101C37.2578 20.0765 38.6438 19.9059 39.875 19.3236C39.9322 20.5642 40.3523 21.7607 41.0833 22.7648C41.8142 23.7689 42.8238 24.5363 43.9868 24.972C45.1498 25.4076 46.4151 25.4923 47.6258 25.2155C48.8365 24.9387 49.9394 24.3126 50.7976 23.4149C51.6558 22.5172 52.2316 21.3873 52.4536 20.1653C52.6756 18.9434 52.5341 17.6832 52.0465 16.5409C51.559 15.3987 50.7468 14.4247 49.7109 13.7397C48.6749 13.0547 47.4607 12.6889 46.2188 12.6876Z" fill="#5746AF"/>
<path d="M3.6084 36.1953H9.0459V45.2578H3.6084V36.1953Z" fill="#5746AF"/>
<path fill-rule="evenodd" clip-rule="evenodd" d="M49.8734 30.8627C50.708 31.0289 51.4931 31.3853 52.1675 31.9042H52.1766C52.9287 32.4783 53.5222 33.2344 53.9014 34.1013C54.2805 34.9681 54.4327 35.9173 54.3436 36.8592C54.2545 37.8012 53.9271 38.7049 53.3922 39.4854C52.8573 40.2658 52.1326 40.8972 51.2862 41.3202L51.1865 41.3655L42.38 45.1128C42.2931 45.1511 42.2029 45.1814 42.1104 45.2034L27.6104 48.8284C27.4667 48.8646 27.3191 48.8829 27.1709 48.8828H3.6084C2.64699 48.8828 1.72496 48.5009 1.04514 47.8211C0.365317 47.1413 -0.0166016 46.2192 -0.0166016 45.2578V36.1953C-0.0166016 35.2339 0.365317 34.3119 1.04514 33.6321C1.72496 32.9522 2.64699 32.5703 3.6084 32.5703H10.1085L15.2333 27.4432C15.9053 26.7682 16.7044 26.2331 17.5844 25.8687C18.4645 25.5043 19.408 25.3179 20.3604 25.3203H31.7021C32.6595 25.3202 33.6045 25.5368 34.4663 25.9539C35.3281 26.3709 36.0843 26.9776 36.6782 27.7285C37.2722 28.4794 37.6885 29.355 37.8959 30.2896C38.1033 31.2243 38.0965 32.1937 37.876 33.1254L47.3553 30.9459C48.1772 30.7249 49.0388 30.6964 49.8734 30.8627ZM9.0459 36.1953H3.6084V45.2578H9.0459V36.1953ZM41.0886 41.7212L49.698 38.0554H49.6912C50.1169 37.8317 50.4449 37.4585 50.6121 37.0076C50.7792 36.5567 50.7736 36.0598 50.5965 35.6127C50.4193 35.1657 50.0831 34.7999 49.6525 34.5858C49.2218 34.3717 48.7273 34.3244 48.2639 34.453L48.1936 34.4712L33.0139 37.9625C32.8808 37.9922 32.7448 38.0074 32.6084 38.0078H25.3584C24.8777 38.0078 24.4167 37.8169 24.0768 37.4769C23.7369 37.137 23.5459 36.676 23.5459 36.1953C23.5459 35.7146 23.7369 35.2536 24.0768 34.9137C24.4167 34.5738 24.8777 34.3828 25.3584 34.3828H31.7021C32.4232 34.3828 33.1147 34.0964 33.6246 33.5865C34.1345 33.0766 34.4209 32.3851 34.4209 31.6641C34.4209 30.943 34.1345 30.2515 33.6246 29.7416C33.1147 29.2318 32.4232 28.9453 31.7021 28.9453H20.3604C19.8842 28.9438 19.4124 29.0369 18.9725 29.2194C18.5326 29.4018 18.1334 29.6698 17.798 30.0079L12.6709 35.1327V45.2578H26.9443L41.0886 41.7212Z" fill="#5746AF"/>
<path fill-rule="evenodd" clip-rule="evenodd" d="M37.1396 21.6953C37.5874 21.6958 38.0345 21.6594 38.4764 21.5866C38.9733 23.0627 39.8826 24.3657 41.0966 25.3415C42.3107 26.3173 43.7787 26.925 45.3272 27.0929C46.8757 27.2608 48.4399 26.9818 49.8348 26.2888C51.2298 25.5959 52.3971 24.5181 53.1989 23.1827C54.0007 21.8474 54.4034 20.3103 54.3593 18.7534C54.3152 17.1965 53.8263 15.6847 52.9502 14.3968C52.0742 13.109 50.8478 12.0989 49.4158 11.4859C47.9839 10.873 46.4065 10.6829 44.87 10.9381C44.3914 9.51587 43.5298 8.2532 42.3799 7.28906C41.2301 6.32492 39.8365 5.6967 38.3526 5.47352C36.8686 5.25035 35.3519 5.44087 33.9693 6.02413C32.5867 6.60739 31.3918 7.56077 30.5161 8.77936C29.6404 9.99794 29.1179 11.4345 29.006 12.9309C28.8941 14.4273 29.1972 15.9256 29.8819 17.2609C30.5667 18.5961 31.6065 19.7166 32.887 20.499C34.1675 21.2814 35.639 21.6953 37.1396 21.6953ZM49.9697 21.494C50.4676 20.7488 50.7334 19.8728 50.7334 18.9766C50.7334 17.7748 50.256 16.6223 49.4062 15.7725C48.5564 14.9227 47.4039 14.4453 46.2021 14.4453C45.3059 14.4453 44.4299 14.7111 43.6847 15.209C42.9396 15.7069 42.3588 16.4146 42.0158 17.2425C41.6729 18.0705 41.5831 18.9816 41.758 19.8606C41.9328 20.7395 42.3644 21.5469 42.9981 22.1806C43.6318 22.8143 44.4392 23.2459 45.3181 23.4207C46.1971 23.5956 47.1082 23.5059 47.9362 23.1629C48.7642 22.8199 49.4718 22.2392 49.9697 21.494ZM39.8768 9.92965C39.0894 9.33204 38.1282 9.00831 37.1396 9.00782C35.9379 9.00782 34.7853 9.48521 33.9356 10.335C33.0858 11.1848 32.6084 12.3373 32.6084 13.5391C32.6084 14.7408 33.0858 15.8934 33.9356 16.7431C34.7853 17.5929 35.9379 18.0703 37.1396 18.0703C37.4634 18.0694 37.7861 18.0344 38.1025 17.9661C38.2448 16.84 38.6205 15.756 39.2057 14.7834C39.7909 13.8108 40.5727 12.9711 41.501 12.3179C41.2346 11.366 40.6642 10.5273 39.8768 9.92965Z" fill="#B2CA7F"/>
<path d="M50.7334 18.9766C50.7334 19.8728 50.4676 20.7488 49.9697 21.494C49.4718 22.2392 48.7642 22.8199 47.9362 23.1629C47.1082 23.5059 46.1971 23.5956 45.3181 23.4207C44.4392 23.2459 43.6318 22.8143 42.9981 22.1806C42.3644 21.5469 41.9328 20.7395 41.758 19.8606C41.5831 18.9816 41.6729 18.0705 42.0158 17.2425C42.3588 16.4146 42.9396 15.7069 43.6847 15.209C44.4299 14.7111 45.3059 14.4453 46.2021 14.4453C47.4039 14.4453 48.5564 14.9227 49.4062 15.7725C50.256 16.6223 50.7334 17.7748 50.7334 18.9766Z" fill="#B2CA7F"/>
<path d="M37.1396 9.00782C38.1282 9.00831 39.0894 9.33204 39.8768 9.92965C40.6642 10.5273 41.2346 11.366 41.501 12.3179C40.5727 12.9711 39.7909 13.8108 39.2057 14.7834C38.6205 15.756 38.2448 16.84 38.1025 17.9661C37.7861 18.0344 37.4634 18.0694 37.1396 18.0703C35.9379 18.0703 34.7853 17.5929 33.9356 16.7431C33.0858 15.8934 32.6084 14.7408 32.6084 13.5391C32.6084 12.3373 33.0858 11.1848 33.9356 10.335C34.7853 9.48521 35.9379 9.00782 37.1396 9.00782Z" fill="#C6DE99"/>
</g>
<defs>
<clipPath id="clip0_11472_30301">
<rect width="58" height="58" fill="white"/>
</clipPath>
</defs>
</svg>
