<svg width="58" height="58" viewBox="0 0 58 58" fill="none" xmlns="http://www.w3.org/2000/svg">
<path d="M54.375 36.25C54.375 37.6839 53.9498 39.0856 53.1532 40.2779C52.3565 41.4701 51.2242 42.3994 49.8995 42.9481C48.5747 43.4969 47.117 43.6404 45.7106 43.3607C44.3042 43.081 43.0124 42.3905 41.9985 41.3765C40.9846 40.3626 40.2941 39.0708 40.0143 37.6644C39.7346 36.258 39.8781 34.8003 40.4269 33.4755C40.9756 32.1508 41.9049 31.0185 43.0971 30.2218C44.2894 29.4252 45.6911 29 47.125 29C49.0478 29 50.8919 29.7638 52.2515 31.1235C53.6112 32.4831 54.375 34.3272 54.375 36.25Z" fill="#B2CA7F"/>
<path d="M49.8438 36.25C49.8438 36.7877 49.6843 37.3134 49.3856 37.7605C49.0868 38.2076 48.6622 38.556 48.1654 38.7618C47.6686 38.9676 47.122 39.0214 46.5946 38.9165C46.0672 38.8116 45.5828 38.5527 45.2026 38.1724C44.8223 37.7922 44.5634 37.3078 44.4585 36.7804C44.3536 36.253 44.4074 35.7064 44.6132 35.2096C44.819 34.7128 45.1674 34.2882 45.6145 33.9894C46.0616 33.6907 46.5873 33.5313 47.125 33.5313C47.8461 33.5313 48.5376 33.8177 49.0474 34.3276C49.5573 34.8374 49.8438 35.5289 49.8438 36.25ZM48.8129 45.1516C48.4148 47.7182 47.1127 50.058 45.1415 51.7492C43.1703 53.4404 40.6598 54.3717 38.0625 54.375H32.625C29.7417 54.372 26.9773 53.2253 24.9385 51.1865C22.8997 49.1477 21.753 46.3833 21.75 43.5V34.322C18.2463 33.8805 15.0241 32.1756 12.6881 29.5272C10.3521 26.8788 9.06294 23.4689 9.0625 19.9375V9.0625C9.0625 8.5818 9.25346 8.12078 9.59337 7.78087C9.93328 7.44096 10.3943 7.25 10.875 7.25H16.3125C16.7932 7.25 17.2542 7.44096 17.5941 7.78087C17.934 8.12078 18.125 8.5818 18.125 9.0625C18.125 9.5432 17.934 10.0042 17.5941 10.3441C17.2542 10.684 16.7932 10.875 16.3125 10.875H12.6875V19.9375C12.6874 21.3779 12.9734 22.804 13.529 24.1329C14.0845 25.4619 14.8986 26.6673 15.9238 27.679C16.9491 28.6908 18.1651 29.4888 19.5013 30.0267C20.8375 30.5646 22.2672 30.8317 23.7075 30.8125C29.623 30.7355 34.4375 25.7715 34.4375 19.7495V10.875H30.8125C30.3318 10.875 29.8708 10.684 29.5309 10.3441C29.191 10.0042 29 9.5432 29 9.0625C29 8.5818 29.191 8.12078 29.5309 7.78087C29.8708 7.44096 30.3318 7.25 30.8125 7.25H36.25C36.7307 7.25 37.1917 7.44096 37.5316 7.78087C37.8715 8.12078 38.0625 8.5818 38.0625 9.0625V19.7495C38.0625 27.1898 32.5049 33.4089 25.375 34.3197V43.5C25.375 45.4228 26.1388 47.2669 27.4985 48.6265C28.8581 49.9862 30.7022 50.75 32.625 50.75H38.0625C39.7089 50.7473 41.3055 50.1853 42.5907 49.1562C43.8758 48.1271 44.7732 46.6919 45.1358 45.0859C42.9468 44.5942 41.018 43.3081 39.7227 41.4763C38.4273 39.6446 37.8574 37.3974 38.1233 35.1697C38.3892 32.942 39.472 30.8921 41.1621 29.4167C42.8522 27.9413 45.0295 27.1452 47.2727 27.1825C49.5159 27.2198 51.6655 28.0879 53.3056 29.6187C54.9457 31.1495 55.9597 33.2343 56.1513 35.4696C56.343 37.7049 55.6987 39.9319 54.3431 41.7195C52.9875 43.5072 51.017 44.7285 48.8129 45.1471V45.1516ZM52.5625 36.25C52.5625 35.1746 52.2436 34.1233 51.6461 33.2291C51.0486 32.3349 50.1994 31.638 49.2058 31.2264C48.2123 30.8149 47.119 30.7072 46.0642 30.917C45.0094 31.1268 44.0406 31.6447 43.2801 32.4051C42.5197 33.1656 42.0018 34.1344 41.792 35.1892C41.5822 36.244 41.6899 37.3373 42.1014 38.3308C42.513 39.3244 43.2099 40.1736 44.1041 40.7711C44.9983 41.3686 46.0496 41.6875 47.125 41.6875C48.5671 41.6875 49.9502 41.1146 50.9699 40.0949C51.9896 39.0752 52.5625 37.6921 52.5625 36.25Z" fill="#5746AF"/>
</svg>
