<svg width="58" height="58" viewBox="0 0 58 58" fill="none" xmlns="http://www.w3.org/2000/svg">
<path d="M12.6875 19.9375L19.9375 38.0625C19.9375 42.0659 15.4063 43.5 12.6875 43.5C9.96875 43.5 5.4375 42.0659 5.4375 38.0625L12.6875 19.9375ZM45.3125 12.6875L38.0625 30.8125C38.0625 34.8159 42.5938 36.25 45.3125 36.25C48.0313 36.25 52.5625 34.8159 52.5625 30.8125L45.3125 12.6875Z" fill="#B2CA7F"/>
<path d="M54.2459 30.1328L46.9959 12.0078C46.8362 11.6086 46.5399 11.2791 46.1597 11.0782C45.7795 10.8774 45.3404 10.8182 44.9206 10.9112L30.8125 14.0469V9.0625C30.8125 8.5818 30.6216 8.12078 30.2817 7.78087C29.9418 7.44096 29.4807 7.25 29 7.25C28.5193 7.25 28.0583 7.44096 27.7184 7.78087C27.3785 8.12078 27.1875 8.5818 27.1875 9.0625V14.858L12.2933 18.168C12.0061 18.2315 11.7387 18.3638 11.5141 18.5537C11.2895 18.7436 11.1145 18.9852 11.0042 19.2578V19.2714L3.75418 37.3828C3.66745 37.5989 3.62358 37.8297 3.62503 38.0625C3.62503 43.3437 9.18488 45.3125 12.6875 45.3125C16.1902 45.3125 21.75 43.3437 21.75 38.0625C21.7515 37.8297 21.7076 37.5989 21.6209 37.3828L15.1616 21.2448L27.1875 18.5781V47.125H23.5625C23.0818 47.125 22.6208 47.316 22.2809 47.6559C21.941 47.9958 21.75 48.4568 21.75 48.9375C21.75 49.4182 21.941 49.8792 22.2809 50.2191C22.6208 50.559 23.0818 50.75 23.5625 50.75H34.4375C34.9182 50.75 35.3793 50.559 35.7192 50.2191C36.0591 49.8792 36.25 49.4182 36.25 48.9375C36.25 48.4568 36.0591 47.9958 35.7192 47.6559C35.3793 47.316 34.9182 47.125 34.4375 47.125H30.8125V17.767L42.3672 15.2023L36.3792 30.1328C36.2924 30.3489 36.2486 30.5797 36.25 30.8125C36.25 36.0937 41.8099 38.0625 45.3125 38.0625C48.8152 38.0625 54.375 36.0937 54.375 30.8125C54.3765 30.5797 54.3326 30.3489 54.2459 30.1328ZM12.6875 41.6875C10.9815 41.6875 7.53097 40.8696 7.26589 38.3706L12.6875 24.8177L18.1092 38.3706C17.8441 40.8696 14.3936 41.6875 12.6875 41.6875ZM45.3125 34.4375C43.6065 34.4375 40.156 33.6196 39.8909 31.1206L45.3125 17.5677L50.7342 31.1206C50.4691 33.6196 47.0186 34.4375 45.3125 34.4375Z" fill="#5746AF"/>
</svg>
