<svg width="59" height="59" viewBox="0 0 59 59" fill="none" xmlns="http://www.w3.org/2000/svg">
<path d="M47.9381 49.7814H11.0631C10.7367 49.7815 10.4161 49.6949 10.1341 49.5306C9.85205 49.3662 9.61873 49.1299 9.45794 48.8458C9.29716 48.5618 9.21467 48.2401 9.21891 47.9137C9.22314 47.5873 9.31395 47.2679 9.48206 46.9881L16.5067 35.2803C19.5558 34.7087 23.8817 34.9553 29.4983 37.797C36.9309 41.5606 42.1164 40.7724 45.0549 39.5601L49.5122 46.9881C49.68 47.2674 49.7708 47.5862 49.7753 47.912C49.7798 48.2378 49.698 48.559 49.538 48.8428C49.378 49.1267 49.1457 49.3631 48.8647 49.528C48.5836 49.6928 48.2639 49.7803 47.9381 49.7814Z" fill="#B2CA7F"/>
<path d="M51.0923 46.0407L36.8747 22.337V9.21875H38.7184C39.2074 9.21875 39.6764 9.0245 40.0222 8.67873C40.3679 8.33296 40.5622 7.86399 40.5622 7.375C40.5622 6.88601 40.3679 6.41704 40.0222 6.07127C39.6764 5.7255 39.2074 5.53125 38.7184 5.53125H20.2809C19.7919 5.53125 19.323 5.7255 18.9772 6.07127C18.6314 6.41704 18.4372 6.88601 18.4372 7.375C18.4372 7.86399 18.6314 8.33296 18.9772 8.67873C19.323 9.0245 19.7919 9.21875 20.2809 9.21875H22.1247V22.337L7.90707 46.0407C7.57175 46.5998 7.39062 47.2377 7.38215 47.8896C7.37368 48.5414 7.53816 49.1839 7.85884 49.7514C8.17952 50.319 8.64493 50.7914 9.20765 51.1206C9.77037 51.4497 10.4103 51.6237 11.0622 51.625H47.9372C48.5897 51.625 49.2305 51.4518 49.7942 51.1232C50.3578 50.7945 50.8242 50.3222 51.1457 49.7544C51.4672 49.1867 51.6323 48.5437 51.6242 47.8913C51.616 47.2389 51.4348 46.6003 51.0992 46.0407H51.0923ZM25.5495 23.7959C25.7219 23.5101 25.8128 23.1825 25.8122 22.8487V9.21875H33.1872V22.8487C33.1866 23.1825 33.2775 23.5101 33.4499 23.7959L42.2584 38.4883C39.4928 39.0345 35.5587 38.804 30.3317 36.1582C26.6649 34.303 23.1756 33.3189 19.9099 33.2059L25.5495 23.7959ZM11.0622 47.9375L17.6398 36.9718C20.9239 36.5731 24.6253 37.3982 28.6608 39.4424C33.0397 41.6572 36.7272 42.4109 39.7233 42.4109C41.247 42.4176 42.7641 42.2081 44.2289 41.7886L47.9372 47.9375H11.0622Z" fill="#644FC1"/>
</svg>
