<svg width="58" height="58" viewBox="0 0 58 58" fill="none" xmlns="http://www.w3.org/2000/svg">
<path d="M14.5 12.6875C13.0661 12.6875 11.6644 13.1127 10.4721 13.9093C9.27986 14.706 8.35061 15.8383 7.80188 17.163C7.25314 18.4878 7.10957 19.9455 7.38931 21.3519C7.66905 22.7583 8.35955 24.0501 9.37348 25.064C10.3874 26.078 11.6792 26.7685 13.0856 27.0482C14.492 27.3279 15.9497 27.1844 17.2745 26.6356C18.5992 26.0869 19.7315 25.1576 20.5282 23.9654C21.3248 22.7731 21.75 21.3714 21.75 19.9375C21.75 18.0147 20.9862 16.1706 19.6265 14.811C18.2669 13.4513 16.4228 12.6875 14.5 12.6875Z" fill="#B2CA7F"/>
<path d="M38.0625 32.625C38.0625 34.4174 37.531 36.1695 36.5352 37.6599C35.5394 39.1502 34.124 40.3117 32.4681 40.9977C30.8121 41.6836 28.9899 41.863 27.232 41.5134C25.474 41.1637 23.8593 40.3006 22.5918 39.0332C21.3244 37.7657 20.4613 36.151 20.1116 34.393C19.762 32.6351 19.9414 30.8129 20.6273 29.1569C21.3133 27.501 22.4748 26.0856 23.9651 25.0898C25.4555 24.094 27.2076 23.5625 29 23.5625C31.4035 23.5625 33.7086 24.5173 35.4082 26.2168C37.1077 27.9164 38.0625 30.2215 38.0625 32.625Z" fill="#B2CA7F"/>
<path d="M43.5 12.6875C42.0661 12.6875 40.6644 13.1127 39.4721 13.9093C38.2799 14.706 37.3506 15.8383 36.8019 17.163C36.2531 18.4878 36.1096 19.9455 36.3893 21.3519C36.6691 22.7583 37.3595 24.0501 38.3735 25.064C39.3874 26.078 40.6792 26.7685 42.0856 27.0482C43.492 27.3279 44.9497 27.1844 46.2745 26.6356C47.5992 26.0869 48.7315 25.1576 49.5282 23.9654C50.3248 22.7731 50.75 21.3714 50.75 19.9375C50.75 18.0147 49.9862 16.1706 48.6265 14.811C47.2669 13.4513 45.4228 12.6875 43.5 12.6875Z" fill="#B2CA7F"/>
<path d="M55.4632 34.075C55.2728 34.2178 55.0561 34.3217 54.8255 34.3808C54.5949 34.4399 54.355 34.4529 54.1194 34.4193C53.8837 34.3856 53.657 34.3059 53.4522 34.1846C53.2474 34.0633 53.0685 33.9029 52.9257 33.7125C51.8332 32.2441 50.4113 31.0526 48.7742 30.2341C47.1372 29.4156 45.3309 28.9929 43.5007 29C43.02 29 42.559 28.809 42.2191 28.4691C41.8791 28.1292 41.6882 27.6682 41.6882 27.1875C41.6882 26.7068 41.8791 26.2458 42.2191 25.9059C42.559 25.566 43.02 25.375 43.5007 25.375C44.5177 25.3749 45.5142 25.0896 46.3772 24.5515C47.2402 24.0135 47.9349 23.2441 48.3826 22.331C48.8302 21.4178 49.0128 20.3975 48.9096 19.3857C48.8064 18.374 48.4216 17.4115 47.7988 16.6075C47.176 15.8036 46.3402 15.1904 45.3864 14.8376C44.4325 14.4848 43.3989 14.4066 42.4028 14.6119C41.4068 14.8171 40.4883 15.2976 39.7516 15.9987C39.0149 16.6998 38.4896 17.5934 38.2354 18.5781C38.1759 18.8087 38.0715 19.0253 37.9283 19.2156C37.7851 19.4058 37.6058 19.566 37.4007 19.687C37.1956 19.808 36.9686 19.8873 36.7328 19.9206C36.497 19.9539 36.257 19.9404 36.0264 19.8809C35.7958 19.8214 35.5792 19.717 35.3889 19.5738C35.1987 19.4306 35.0385 19.2513 34.9175 19.0462C34.7966 18.841 34.7172 18.6141 34.6839 18.3783C34.6506 18.1425 34.6641 17.9025 34.7237 17.6719C35.0765 16.3064 35.7432 15.0422 36.6707 13.9797C37.5982 12.9172 38.7608 12.0859 40.0661 11.5519C41.3714 11.0178 42.7833 10.7958 44.1895 10.9034C45.5957 11.011 46.9574 11.4454 48.1662 12.1719C49.375 12.8984 50.3976 13.897 51.1526 15.0882C51.9075 16.2794 52.374 17.6304 52.515 19.0337C52.656 20.4369 52.4675 21.8537 51.9645 23.1713C51.4616 24.4889 50.658 25.671 49.6179 26.6234C52.0824 27.6905 54.2249 29.3838 55.8325 31.5352C55.9753 31.7261 56.079 31.9433 56.1378 32.1744C56.1965 32.4054 56.2091 32.6458 56.1748 32.8817C56.1405 33.1177 56.06 33.3445 55.9378 33.5493C55.8157 33.754 55.6544 33.9327 55.4632 34.075ZM43.256 48.0312C43.3825 48.2376 43.4665 48.4672 43.5028 48.7064C43.5392 48.9457 43.5273 49.1899 43.4678 49.4245C43.4083 49.6591 43.3024 49.8794 43.1563 50.0724C43.0103 50.2654 42.8271 50.4273 42.6175 50.5483C42.4079 50.6694 42.1762 50.7472 41.936 50.7773C41.6959 50.8073 41.4521 50.789 41.2192 50.7233C40.9862 50.6577 40.7687 50.546 40.5796 50.3949C40.3905 50.2439 40.2336 50.0564 40.1181 49.8437C38.9762 47.9109 37.3502 46.3092 35.4004 45.1965C33.4506 44.0838 31.2445 43.4986 28.9996 43.4986C26.7546 43.4986 24.5485 44.0838 22.5987 45.1965C20.6489 46.3092 19.0229 47.9109 17.881 49.8437C17.7677 50.0603 17.6117 50.2518 17.4225 50.4066C17.2333 50.5613 17.0147 50.6762 16.78 50.7443C16.5452 50.8124 16.2991 50.8324 16.0564 50.8029C15.8137 50.7734 15.5796 50.6951 15.3679 50.5728C15.1563 50.4505 14.9716 50.2866 14.8249 50.091C14.6783 49.8955 14.5727 49.6723 14.5145 49.4348C14.4564 49.1974 14.4468 48.9506 14.4865 48.7094C14.5262 48.4682 14.6142 48.2375 14.7454 48.0312C16.5026 45.012 19.1819 42.6361 22.3896 41.2525C20.5846 39.8706 19.2581 37.9577 18.5965 35.7829C17.9349 33.6081 17.9714 31.2806 18.701 29.1276C19.4305 26.9746 20.8164 25.1043 22.6639 23.7797C24.5113 22.4551 26.7274 21.7427 29.0007 21.7427C31.2739 21.7427 33.49 22.4551 35.3375 23.7797C37.1849 25.1043 38.5708 26.9746 39.3004 29.1276C40.03 31.2806 40.0665 33.6081 39.4049 35.7829C38.7433 37.9577 37.4167 39.8706 35.6118 41.2525C38.8195 42.6361 41.4988 45.012 43.256 48.0312ZM29.0007 39.875C30.4346 39.875 31.8363 39.4498 33.0286 38.6532C34.2208 37.8565 35.1501 36.7242 35.6988 35.3995C36.2475 34.0747 36.3911 32.617 36.1114 31.2106C35.8316 29.8042 35.1411 28.5124 34.1272 27.4985C33.1133 26.4845 31.8215 25.794 30.4151 25.5143C29.0087 25.2346 27.551 25.3781 26.2262 25.9269C24.9015 26.4756 23.7692 27.4049 22.9725 28.5971C22.1759 29.7894 21.7507 31.1911 21.7507 32.625C21.7507 34.5478 22.5145 36.3919 23.8742 37.7515C25.2338 39.1112 27.0779 39.875 29.0007 39.875ZM16.3132 27.1875C16.3132 26.7068 16.1222 26.2458 15.7823 25.9059C15.4424 25.566 14.9814 25.375 14.5007 25.375C13.4837 25.3749 12.4871 25.0896 11.6242 24.5515C10.7612 24.0135 10.0664 23.2441 9.61879 22.331C9.17113 21.4178 8.98853 20.3975 9.09173 19.3857C9.19493 18.374 9.57978 17.4115 10.2026 16.6075C10.8254 15.8036 11.6612 15.1904 12.615 14.8376C13.5688 14.4848 14.6025 14.4066 15.5985 14.6119C16.5946 14.8171 17.5131 15.2976 18.2498 15.9987C18.9865 16.6998 19.5118 17.5934 19.766 18.5781C19.8862 19.0438 20.1864 19.4427 20.6007 19.687C21.015 19.9313 21.5093 20.001 21.975 19.8809C22.4407 19.7607 22.8395 19.4604 23.0838 19.0462C23.3282 18.6319 23.3979 18.1376 23.2777 17.6719C22.9248 16.3064 22.2581 15.0422 21.3307 13.9797C20.4032 12.9172 19.2406 12.0859 17.9353 11.5519C16.63 11.0178 15.2181 10.7958 13.8118 10.9034C12.4056 11.011 11.044 11.4454 9.83514 12.1719C8.62634 12.8984 7.60377 13.897 6.84881 15.0882C6.09385 16.2794 5.62733 17.6304 5.48637 19.0337C5.34542 20.4369 5.53391 21.8537 6.03686 23.1713C6.53982 24.4889 7.34334 25.671 8.3835 26.6234C5.92141 27.6915 3.78137 29.3848 2.17569 31.5352C1.88696 31.9198 1.76283 32.4033 1.8306 32.8794C1.89837 33.3555 2.15249 33.7851 2.53705 34.0739C2.92162 34.3626 3.40513 34.4867 3.88121 34.419C4.3573 34.3512 4.78696 34.0971 5.07569 33.7125C6.16814 32.2441 7.59011 31.0526 9.22712 30.2341C10.8641 29.4156 12.6705 28.9929 14.5007 29C14.9814 29 15.4424 28.809 15.7823 28.4691C16.1222 28.1292 16.3132 27.6682 16.3132 27.1875Z" fill="#644FC1"/>
</svg>
