<svg width="58" height="58" viewBox="0 0 58 58" fill="none" xmlns="http://www.w3.org/2000/svg">
<path d="M47.125 9.0625H10.875C10.3943 9.0625 9.93328 9.25346 9.59337 9.59337C9.25346 9.93328 9.0625 10.3943 9.0625 10.875V47.125C9.0625 47.6057 9.25346 48.0667 9.59337 48.4066C9.93328 48.7465 10.3943 48.9375 10.875 48.9375H47.125C47.6057 48.9375 48.0667 48.7465 48.4066 48.4066C48.7465 48.0667 48.9375 47.6057 48.9375 47.125V10.875C48.9375 10.3943 48.7465 9.93328 48.4066 9.59337C48.0667 9.25346 47.6057 9.0625 47.125 9.0625ZM19.9375 41.6875C19.2205 41.6875 18.5197 41.4749 17.9236 41.0766C17.3274 40.6783 16.8628 40.1121 16.5884 39.4497C16.3141 38.7873 16.2423 38.0585 16.3822 37.3553C16.522 36.6521 16.8673 36.0062 17.3742 35.4992C17.8812 34.9923 18.5271 34.647 19.2303 34.5072C19.9335 34.3673 20.6623 34.4391 21.3247 34.7134C21.9871 34.9878 22.5533 35.4524 22.9516 36.0486C23.3499 36.6447 23.5625 37.3455 23.5625 38.0625C23.5625 39.0239 23.1806 39.9459 22.5008 40.6258C21.8209 41.3056 20.8989 41.6875 19.9375 41.6875ZM38.0625 27.1875C37.3455 27.1875 36.6447 26.9749 36.0486 26.5766C35.4524 26.1783 34.9878 25.6121 34.7134 24.9497C34.4391 24.2873 34.3673 23.5585 34.5072 22.8553C34.647 22.1521 34.9923 21.5062 35.4992 20.9992C36.0062 20.4923 36.6521 20.147 37.3553 20.0072C38.0585 19.8673 38.7873 19.9391 39.4497 20.2134C40.1121 20.4878 40.6783 20.9524 41.0766 21.5486C41.4749 22.1447 41.6875 22.8455 41.6875 23.5625C41.6875 24.5239 41.3056 25.4459 40.6258 26.1258C39.9459 26.8056 39.0239 27.1875 38.0625 27.1875Z" fill="#B2CA7F"/>
<path d="M47.125 7.25H10.875C9.91359 7.25 8.99156 7.63192 8.31174 8.31174C7.63192 8.99156 7.25 9.91359 7.25 10.875V47.125C7.25 48.0864 7.63192 49.0084 8.31174 49.6883C8.99156 50.3681 9.91359 50.75 10.875 50.75H47.125C48.0864 50.75 49.0084 50.3681 49.6883 49.6883C50.3681 49.0084 50.75 48.0864 50.75 47.125V10.875C50.75 9.91359 50.3681 8.99156 49.6883 8.31174C49.0084 7.63192 48.0864 7.25 47.125 7.25ZM19.9375 36.25C20.296 36.25 20.6464 36.3563 20.9445 36.5555C21.2425 36.7546 21.4748 37.0377 21.612 37.3689C21.7492 37.7001 21.7851 38.0645 21.7152 38.4161C21.6452 38.7677 21.4726 39.0906 21.2191 39.3441C20.9656 39.5976 20.6427 39.7702 20.2911 39.8402C19.9395 39.9101 19.5751 39.8742 19.2439 39.737C18.9127 39.5998 18.6296 39.3675 18.4305 39.0695C18.2313 38.7714 18.125 38.421 18.125 38.0625C18.125 37.5818 18.316 37.1208 18.6559 36.7809C18.9958 36.441 19.4568 36.25 19.9375 36.25ZM10.875 10.875H18.125V32.9377C16.9157 33.3652 15.8964 34.2065 15.2474 35.3129C14.5984 36.4193 14.3614 37.7195 14.5783 38.9837C14.7952 40.2479 15.4521 41.3947 16.4327 42.2215C17.4134 43.0482 18.6548 43.5017 19.9375 43.5017C21.2202 43.5017 22.4616 43.0482 23.4423 42.2215C24.4229 41.3947 25.0798 40.2479 25.2967 38.9837C25.5136 37.7195 25.2766 36.4193 24.6276 35.3129C23.9786 34.2065 22.9593 33.3652 21.75 32.9377V26.1249L32.625 36.9999V47.125H10.875V10.875ZM47.125 47.125H36.25V36.25C36.2502 36.0119 36.2035 35.7761 36.1125 35.5561C36.0215 35.3361 35.8881 35.1361 35.7198 34.9677L21.75 21.0001V10.875H29V16.3125C28.9998 16.5506 29.0465 16.7864 29.1375 17.0064C29.2285 17.2264 29.3619 17.4264 29.5302 17.5948L33.1552 21.2198C32.8041 21.9508 32.6229 22.7516 32.625 23.5625C32.625 24.6379 32.9439 25.6892 33.5414 26.5834C34.1389 27.4776 34.9881 28.1745 35.9817 28.5861C36.9752 28.9976 38.0685 29.1053 39.1233 28.8955C40.1781 28.6857 41.1469 28.1678 41.9074 27.4074C42.6678 26.6469 43.1857 25.6781 43.3955 24.6233C43.6053 23.5685 43.4976 22.4752 43.0861 21.4817C42.6745 20.4881 41.9776 19.6389 41.0834 19.0414C40.1892 18.4439 39.1379 18.125 38.0625 18.125C37.2515 18.1236 36.4506 18.3056 35.7198 18.6574L32.625 15.5626V10.875H47.125V47.125ZM38.0625 21.75C38.421 21.75 38.7714 21.8563 39.0695 22.0555C39.3675 22.2546 39.5998 22.5377 39.737 22.8689C39.8742 23.2001 39.9101 23.5645 39.8402 23.9161C39.7702 24.2677 39.5976 24.5906 39.3441 24.8441C39.0906 25.0976 38.7677 25.2702 38.4161 25.3402C38.0645 25.4101 37.7001 25.3742 37.3689 25.237C37.0377 25.0998 36.7546 24.8675 36.5555 24.5695C36.3563 24.2714 36.25 23.921 36.25 23.5625C36.25 23.0818 36.441 22.6208 36.7809 22.2809C37.1208 21.941 37.5818 21.75 38.0625 21.75Z" fill="#644FC1"/>
</svg>
