<svg width="58" height="58" viewBox="0 0 58 58" fill="none" xmlns="http://www.w3.org/2000/svg">
<path d="M47.125 16.3125V29H10.875V16.3125H47.125Z" fill="#B2CA7F"/>
<path d="M41.6875 5.4375H16.3125C14.3897 5.4375 12.5456 6.20134 11.186 7.56098C9.82634 8.92061 9.0625 10.7647 9.0625 12.6875V41.6875C9.0625 43.6103 9.82634 45.4544 11.186 46.814C12.5456 48.1737 14.3897 48.9375 16.3125 48.9375H18.125L14.8625 53.2875C14.7197 53.4779 14.6158 53.6946 14.5567 53.9252C14.4976 54.1557 14.4846 54.3957 14.5182 54.6313C14.5519 54.867 14.6316 55.0936 14.7529 55.2985C14.8742 55.5033 15.0346 55.6822 15.225 55.825C15.4154 55.9678 15.6321 56.0717 15.8627 56.1308C16.0932 56.1899 16.3332 56.2029 16.5688 56.1693C16.8045 56.1356 17.0311 56.0559 17.236 55.9346C17.4408 55.8133 17.6197 55.6529 17.7625 55.4625L22.6562 48.9375H35.3438L40.2375 55.4625C40.5259 55.8471 40.9553 56.1013 41.4312 56.1693C41.907 56.2373 42.3904 56.1134 42.775 55.825C43.1596 55.5366 43.4138 55.1072 43.4818 54.6313C43.5498 54.1555 43.4259 53.6721 43.1375 53.2875L39.875 48.9375H41.6875C43.6103 48.9375 45.4544 48.1737 46.814 46.814C48.1737 45.4544 48.9375 43.6103 48.9375 41.6875V12.6875C48.9375 10.7647 48.1737 8.92061 46.814 7.56098C45.4544 6.20134 43.6103 5.4375 41.6875 5.4375ZM12.6875 27.1875V18.125H27.1875V27.1875H12.6875ZM30.8125 18.125H45.3125V27.1875H30.8125V18.125ZM16.3125 9.0625H41.6875C42.6489 9.0625 43.5709 9.44442 44.2508 10.1242C44.9306 10.8041 45.3125 11.7261 45.3125 12.6875V14.5H12.6875V12.6875C12.6875 11.7261 13.0694 10.8041 13.7492 10.1242C14.4291 9.44442 15.3511 9.0625 16.3125 9.0625ZM41.6875 45.3125H16.3125C15.3511 45.3125 14.4291 44.9306 13.7492 44.2508C13.0694 43.5709 12.6875 42.6489 12.6875 41.6875V30.8125H45.3125V41.6875C45.3125 42.6489 44.9306 43.5709 44.2508 44.2508C43.5709 44.9306 42.6489 45.3125 41.6875 45.3125ZM21.75 38.9688C21.75 39.5065 21.5905 40.0321 21.2918 40.4792C20.9931 40.9263 20.5685 41.2748 20.0717 41.4805C19.5749 41.6863 19.0282 41.7402 18.5008 41.6353C17.9735 41.5304 17.489 41.2714 17.1088 40.8912C16.7286 40.511 16.4696 40.0265 16.3647 39.4992C16.2598 38.9718 16.3137 38.4251 16.5195 37.9283C16.7252 37.4315 17.0737 37.0069 17.5208 36.7082C17.9679 36.4095 18.4935 36.25 19.0312 36.25C19.7523 36.25 20.4438 36.5364 20.9537 37.0463C21.4636 37.5562 21.75 38.2477 21.75 38.9688ZM41.6875 38.9688C41.6875 39.5065 41.528 40.0321 41.2293 40.4792C40.9306 40.9263 40.506 41.2748 40.0092 41.4805C39.5124 41.6863 38.9657 41.7402 38.4383 41.6353C37.911 41.5304 37.4265 41.2714 37.0463 40.8912C36.6661 40.511 36.4071 40.0265 36.3022 39.4992C36.1973 38.9718 36.2512 38.4251 36.457 37.9283C36.6627 37.4315 37.0112 37.0069 37.4583 36.7082C37.9054 36.4095 38.431 36.25 38.9688 36.25C39.6898 36.25 40.3813 36.5364 40.8912 37.0463C41.4011 37.5562 41.6875 38.2477 41.6875 38.9688Z" fill="#644FC1"/>
</svg>
